<?xml version="1.0" encoding="UTF-8" standalone="no"?>
<!-- Generator: Adobe Illustrator 16.0.0, SVG Export Plug-In . SVG Version: 6.00 Build 0)  -->

<svg
   version="1.1"
   id="Capa_1"
   x="0px"
   y="0px"
   width="375.636px"
   height="375.635px"
   viewBox="0 0 375.636 375.635"
   style="enable-background:new 0 0 375.636 375.635;"
   xml:space="preserve"
   sodipodi:docname="more.svg"
   inkscape:version="1.1 (c4e8f9ed74, 2021-05-24)"
   xmlns:inkscape="http://www.inkscape.org/namespaces/inkscape"
   xmlns:sodipodi="http://sodipodi.sourceforge.net/DTD/sodipodi-0.dtd"
   xmlns="http://www.w3.org/2000/svg"
   xmlns:svg="http://www.w3.org/2000/svg"><defs
   id="defs217" /><sodipodi:namedview
   id="namedview215"
   pagecolor="#ffffff"
   bordercolor="#666666"
   borderopacity="1.0"
   inkscape:pageshadow="2"
   inkscape:pageopacity="0.0"
   inkscape:pagecheckerboard="0"
   showgrid="false"
   inkscape:zoom="1.7570247"
   inkscape:cx="188.10208"
   inkscape:cy="186.96379"
   inkscape:window-width="1920"
   inkscape:window-height="1009"
   inkscape:window-x="0"
   inkscape:window-y="0"
   inkscape:window-maximized="1"
   inkscape:current-layer="Capa_1" />
<g
   id="g182">
	<g
   id="g180">
		<g
   id="g170">
			<path
   d="M41.013,228.825C18.396,228.825,0,210.438,0,187.818c0-22.608,18.396-41.007,41.013-41.007     c22.617,0,41.013,18.398,41.013,41.007C82.025,210.438,63.63,228.825,41.013,228.825z"
   id="path168" />
		</g>
		<g
   id="g174">
			<path
   d="M185.513,228.825c-22.617,0-41.013-18.387-41.013-41.007c0-22.608,18.396-41.007,41.013-41.007     c22.613,0,41.013,18.398,41.013,41.007C226.525,210.438,208.126,228.825,185.513,228.825z"
   id="path172" />
		</g>
		<g
   id="g178">
			<path
   d="M334.623,228.825c-22.613,0-41.013-18.387-41.013-41.007c0-22.608,18.399-41.007,41.013-41.007     c22.614,0,41.013,18.398,41.013,41.007C375.636,210.438,357.237,228.825,334.623,228.825z"
   id="path176" />
		</g>
	</g>
</g>
<g
   id="g184">
</g>
<g
   id="g186">
</g>
<g
   id="g188">
</g>
<g
   id="g190">
</g>
<g
   id="g192">
</g>
<g
   id="g194">
</g>
<g
   id="g196">
</g>
<g
   id="g198">
</g>
<g
   id="g200">
</g>
<g
   id="g202">
</g>
<g
   id="g204">
</g>
<g
   id="g206">
</g>
<g
   id="g208">
</g>
<g
   id="g210">
</g>
<g
   id="g212">
</g>
<path
   style="fill:#a0a0a0;stroke:none;stroke-width:0.569144"
   d="m 33.906857,227.89249 c -8.622724,-1.69175 -14.895093,-5.09104 -21.403765,-11.59971 -5.6537507,-5.65375 -8.2896731,-9.97447 -10.6010908,-17.37697 -1.90483713,-6.10039 -1.90483713,-16.09622 0,-22.19661 2.3114177,-7.4025 4.9473401,-11.72322 10.6010908,-17.37697 7.695298,-7.6953 15.751957,-11.39831 26.218697,-12.05067 15.761037,-0.98233 30.922524,7.72798 38.370518,22.04397 10.478584,20.14116 2.140869,44.93156 -18.47048,54.91797 -7.818158,3.78798 -17.037095,5.14536 -24.71497,3.63899 z"
   id="path256" /><path
   style="fill:#a0a0a0;stroke:none;stroke-width:0.569144"
   d="m 177.00377,227.61785 c -2.1912,-0.48168 -6.4171,-2.04784 -9.39088,-3.48034 -4.63535,-2.23291 -6.14264,-3.34516 -10.5633,-7.79483 -3.92626,-3.95202 -5.72333,-6.29335 -7.53262,-9.81392 -4.52823,-8.81117 -5.76498,-18.66283 -3.51902,-28.03163 1.8144,-7.5686 5.01248,-13.12602 11.05164,-19.2048 4.42065,-4.44966 5.92796,-5.56192 10.5633,-7.79483 12.3726,-5.96005 24.92618,-5.74309 37.27893,0.6443 5.47233,2.82965 13.49012,10.84553 16.32869,16.32481 3.60368,6.9562 4.72964,11.56295 4.72964,19.35089 0,5.56748 -0.24634,7.61864 -1.33286,11.09831 -2.31141,7.4025 -4.94734,11.72322 -10.60109,17.37697 -5.59103,5.59103 -9.95802,8.27533 -17.09239,10.50634 -5.28227,1.65183 -14.42148,2.02746 -19.92004,0.81873 z"
   id="path295" /><path
   style="fill:#333333;stroke:none;stroke-width:0.569144"
   d="m 326.11949,227.61785 c -5.10593,-1.12241 -13.42258,-5.15952 -17.07432,-8.28828 -12.30751,-10.5449 -17.52577,-25.83932 -13.93151,-40.83244 4.55773,-19.01212 22.50183,-32.40833 41.79956,-31.20557 10.46674,0.65236 18.5234,4.35537 26.2187,12.05067 5.65375,5.65375 8.28967,9.97447 10.60109,17.37697 1.90483,6.10039 1.90483,16.09622 0,22.19661 -2.31142,7.4025 -4.94734,11.72322 -10.60109,17.37697 -5.59104,5.59103 -9.95802,8.27533 -17.0924,10.50634 -5.28226,1.65183 -14.42147,2.02746 -19.92003,0.81873 z"
   id="path334" /><path
   style="fill:#333333;stroke-width:0.569144"
   d="m 176.17965,227.07008 c -11.64794,-3.2671 -21.60678,-11.37431 -26.77763,-21.79893 -3.06004,-6.16915 -4.17815,-11.8314 -3.83704,-19.43128 0.49564,-11.04267 3.82379,-18.21212 12.50772,-26.94396 3.6485,-3.66863 5.34967,-4.88691 9.70469,-6.9499 6.62175,-3.13675 11.22692,-4.23403 17.81478,-4.24474 12.131,-0.0197 23.28131,5.38 31.21091,15.11442 3.57908,4.3937 5.0841,7.09477 6.95412,12.48065 1.44367,4.1579 1.58176,5.26953 1.59078,12.80574 0.009,7.87578 -0.0709,8.46327 -1.75893,12.86697 -2.37154,6.18677 -5.14777,10.37624 -10.14443,15.30846 -4.99473,4.93031 -9.28282,7.6366 -15.38799,9.71165 -5.75311,1.95538 -16.81135,2.50176 -21.87698,1.08092 z"
   id="path439" /><path
   style="fill:#4d4d4d;stroke-width:0.569144"
   d="M 31.872061,227.09892 C 23.889249,224.94361 18.601951,221.82133 12.456575,215.63361 4.834372,207.95887 1.4330097,200.20841 0.98298941,189.4895 0.54942317,179.1625 3.3723588,170.53303 9.6516217,162.99024 18.044907,152.90805 28.724832,147.69286 40.978365,147.69286 c 16.916944,0 32.257554,10.9773 38.084102,27.25189 1.648879,4.6056 1.755092,5.3907 1.741552,12.87275 -0.01309,7.23228 -0.161073,8.38844 -1.602675,12.52117 -3.57189,10.23978 -11.112758,18.80442 -20.529216,23.31632 -2.844928,1.36315 -6.853705,2.88541 -8.908394,3.38281 -4.548266,1.10103 -13.921442,1.13305 -17.891673,0.0611 z"
   id="path478" /><path
   style="fill:#4d4d4d;stroke-width:0.569144"
   d="m 173.53928,225.79105 c -6.41648,-2.28332 -11.18947,-5.33865 -16.17098,-10.3515 -7.73644,-7.78512 -10.82872,-14.83456 -11.24275,-25.63004 -0.50172,-13.08163 2.57442,-20.82122 12.11834,-30.48984 4.4675,-4.52587 9.88451,-7.66617 17.0275,-9.87105 4.84305,-1.49494 13.68535,-1.67324 19.22834,-0.38773 14.25683,3.30638 26.13241,14.99234 29.77661,29.30118 0.70316,2.76095 0.87161,5.49769 0.70062,11.38288 -0.20073,6.90905 -0.3985,8.16552 -1.82646,11.60392 -2.33637,5.62582 -5.53932,10.26539 -10.25598,14.85614 -4.8567,4.72704 -8.83831,7.25824 -14.64199,9.30821 -3.54175,1.25102 -5.38209,1.50794 -12.14246,1.69512 -7.61755,0.21092 -8.17046,0.14858 -12.57079,-1.41729 z"
   id="path622" /><path
   style="fill:#4d4d4d;stroke-width:0.569144"
   d="m 325.26577,227.08912 c -1.72166,-0.47062 -5.51416,-2.02641 -8.42778,-3.45729 -9.15937,-4.4982 -16.37241,-12.56227 -20.1868,-22.56855 -1.70957,-4.48469 -1.79587,-5.10108 -1.81477,-12.9612 -0.0183,-7.60347 0.10686,-8.62169 1.59106,-12.94512 3.65734,-10.65365 12.51595,-20.1109 22.95777,-24.50916 9.71321,-4.09137 22.57987,-3.92926 31.64838,0.39874 10.01502,4.77973 18.38965,14.02706 21.86215,24.14036 1.4569,4.24308 1.60094,5.37951 1.60094,12.6306 0,7.2511 -0.14404,8.38753 -1.60094,12.63061 -3.91163,11.3922 -14.0735,21.63134 -25.30917,25.50162 -5.60813,1.9318 -17.24834,2.52598 -22.32084,1.13939 z"
   id="path661" /></svg>
